<?xml version="1.0" encoding="UTF-8"?>
<!DOCTYPE svg PUBLIC "-//W3C//DTD SVG 1.1//EN" "http://www.w3.org/Graphics/SVG/1.1/DTD/svg11.dtd">
<!-- Creator: CorelDRAW 2021 (64-Bit) -->
<svg xmlns="http://www.w3.org/2000/svg" xml:space="preserve" width="11.6929in" height="8.26772in" version="1.1" style="shape-rendering:geometricPrecision; text-rendering:geometricPrecision; image-rendering:optimizeQuality; fill-rule:evenodd; clip-rule:evenodd"
viewBox="0 0 11692.91 8267.72"
 xmlns:xlink="http://www.w3.org/1999/xlink"
 xmlns:xodm="http://www.corel.com/coreldraw/odm/2003">
 <defs>
  <style type="text/css">
   <![CDATA[
    .fil2 {fill:#060606}
    .fil5 {fill:#4B4B4B}
    .fil3 {fill:#6C6C6C}
    .fil4 {fill:#8D8D8D}
    .fil6 {fill:#BEBEBE}
    .fil8 {fill:#D5D5D5}
    .fil7 {fill:#FB9995}
    .fil1 {fill:#FF2702}
    .fil0 {fill:#FFFEFD}
   ]]>
  </style>
 </defs>
 <g id="Layer_x0020_1">
  <metadata id="CorelCorpID_0Corel-Layer"/>
  <g id="_2709495813632">
   <polygon class="fil0" points="2327.28,6152.94 9223.1,6152.94 9223.1,1548.78 2327.28,1548.78 "/>
   <path class="fil1" d="M4410.61 2133.78c-176.61,-20.61 -170.2,30.85 -272.17,70.59 -239.59,93.38 -49.43,275.93 -179.57,413.15 -81.33,85.75 -217.56,8.92 -288.12,13.11 -123.42,7.33 -214.85,102.79 -281.63,198.72 -64.12,92.11 1.94,277.04 4.11,312.7 13.06,214.82 -235.65,136.01 -311.93,161.06 -30.97,10.17 -164.76,173.52 -166.15,307.96 -1.45,141.12 25.2,95.5 79.81,166.48 33.52,43.57 35.96,158.28 -10.19,189.14 -47.78,31.95 -138.22,24.77 -211.45,28.99 -14.99,55.59 -34.36,78.28 -56.46,119.37l-30.08 114.17c-9.04,54.22 -3.75,106.53 -10.14,160.17 -9.81,82.37 -21.04,96.78 48.79,167.36 50.02,50.56 98.04,59.42 101.03,158.14 11.61,383.72 -102.61,331.63 365.39,330.43 210.64,-0.48 180.75,17.74 253.08,-149.13 61.51,-141.91 58.22,-311.19 152.5,-303.67 35.07,2.8 50.57,27.57 68.31,44.1 58.17,54.22 292.64,163.12 371.27,202.92 92.76,46.95 108.22,32.03 144.51,52.78 103.72,59.28 53.55,10.29 173.19,57.27 24.16,9.48 57.17,19.04 84.17,30.76 70.61,30.63 80.72,2.72 147.3,29.27 10.17,4.05 25.93,11.7 43.89,16.56 36.67,9.92 67.84,12.92 113.92,14.01 110.26,2.62 557.98,45.96 608.25,-18.54 30.9,-39.65 16.63,-312.55 16.69,-379.11 0.21,-260.23 10.43,-143.01 -518.55,-192.54 -41.61,-3.89 -134.63,-2.84 -174.48,-11.2l-46.09 -14.5c-2.55,-0.87 -5.33,-1.87 -7.87,-2.74 -80.05,-27.72 -139.71,-27.53 -238.32,-75.1 -35.5,-17.13 -85.05,-45.68 -123.86,-62.28l-176.87 -116.06c-25.77,-21.32 -26.24,-24.89 -46.84,-46.26 -40.81,-42.33 -95.32,-71.29 -91.33,-104.31 7.22,-59.74 209.77,-37.64 309.64,-37.69 204.37,-0.09 939.94,4.56 1032.53,-8.17 39.74,-5.46 45.37,-7.77 64.34,-34.74 26.31,-37.38 17.56,-148.33 17.69,-200.66l-0.38 -1573.24c-4.44,-38.94 -20.11,-50.99 -48.13,-76.06 -27.31,-24.44 -48.27,-37.8 -69.89,-65.69 -49.65,-64.07 -30.92,-104.18 -79.5,-187.81 -118.53,-9.99 -219.78,26.92 -315.79,66.69 -20.53,8.51 -43.64,13.38 -61.2,21.81 -15.54,7.46 -72.65,61.18 -81.2,74.01 -23.86,35.79 -24.16,81.98 -42.06,115.56 -0.81,1.53 -57.38,92.33 -59.85,95.24 -78.52,92.61 -190.82,-63.66 -200.31,-73.01z"/>
   <path class="fil1" d="M6289.44 1923.78c0.14,88.07 -6.82,109.34 -60.78,171.59 -47.41,54.69 -50.83,-44.84 -50.83,234.66l-0.04 2625c-0.31,124.4 -12.84,92 243.23,95.22l248.91 -1.9c49.05,-8.93 30.43,-15.43 60.51,-30.09l4.54 -1011.17c113.22,-92.73 140.58,-63.8 352.7,-64.06l520.91 -0.27c102.75,-1.11 100.99,3.08 171.77,58.27 69.22,53.97 141.13,173.43 177.22,250.21l59.48 172.55c24.56,52.42 17.15,-6.13 27.85,72.83 8.95,65.99 15.03,43.54 24.98,87.32 31.07,136.74 17.98,272.88 32.43,423.16 5.55,3.92 14.88,9.59 22.2,15.21 50.19,38.53 45.14,27.21 181.93,27.11 512.5,-0.39 440.13,72.44 439.91,-354.82 0.51,-100.78 54.17,-136.36 110.35,-187.5 7.27,-96.92 7,-209.23 -15.65,-285.12 -31.94,-107.05 -14.43,-71.91 -60.08,-168.26 -10.82,-22.85 -15.46,-40.41 -26.61,-56.5 -42.29,-4.31 -211.22,14.69 -248.11,-87.22 -38.11,-105.28 58.04,-168.64 106.85,-215.39 8.28,-16.9 14.8,-144.76 -25.06,-219.99 -23.96,-45.24 -50.58,-94.64 -87.94,-129.98 -26.84,-25.38 -27.35,-35.4 -61.96,-51.07 -36.78,-16.65 -193.8,-14.09 -267.33,-17.68 -27.62,-52.06 -39.15,-86.02 -30.2,-154l36.02 -149.72c27.55,-86.02 7.09,-82.26 -26.76,-131.04 -19.72,-28.43 -12.64,-29.3 -37.67,-56.51l-150.26 -129.06c-180.56,-71.86 -209.94,28.46 -326.85,-7.62 -53.68,-16.57 -69.51,-59.66 -91.38,-106.89 -50.26,-108.54 32.97,-221.58 -82.12,-292.41l-244 -130.35 -90.38 2.75c-67.51,28.79 -52.16,122.93 -164.48,110.43 -57.78,-6.43 -75.87,-54.52 -96.81,-97.28 -23.76,-48.53 -34.04,-90.51 -42,-158.36l-440.71 -139.57c-69.33,-12.3 -93.89,19.9 -93.78,87.49z"/>
   <path class="fil1" d="M5581.04 2060.31c-9.65,41.42 5.99,-7.59 -83.18,61.38 -11.54,123.99 -2.58,1542.67 -2.61,1708.33l0.93 1062.67c0.2,29.98 -3.43,70.72 8.15,95.4 0.91,1.93 2.5,4.52 3.59,6.28 1.06,1.72 3.02,4.09 4.24,5.68l52.57 38.94c50.19,19.37 348.7,9.41 418.8,3.34l46.06 -51.5c31.83,-43.59 17.51,-236.83 17.51,-296.22l0 -2114.58c0,-166.41 32.65,-416.67 -31.76,-500.9 -1.87,-2.44 -7.37,-9.44 -9.17,-12 -1.34,-1.89 -3,-4.48 -4.3,-6.41 -106.97,-157.67 -41.18,-41.06 -65.82,-230.7 -27.8,-13.61 -18.84,-1.21 -39.13,-20.88 -80.68,-6.25 -141.44,-22.26 -201.81,1.99 -48.59,19.52 -17.94,-9.47 -43.17,31.55 -25.94,42.19 2.19,210.06 -70.89,217.63z"/>
   <path class="fil0" d="M6775.19 2969.3c-44.64,51.19 -44.33,38.3 -44.14,131.41l0.58 375.89c2.55,115.35 103.26,167.17 209.94,166.77 104.02,-0.4 515.46,8.07 557.57,-5.13 54.04,-16.94 61.62,-68.2 35.27,-120.3l-16.37 -24.85c-60.65,-83.1 -133.5,-152.83 -205.97,-220.58l-379.5 -277.07c-47.28,-28.28 -92.24,-31.13 -157.39,-26.13z"/>
   <path class="fil0" d="M3992.59 3600.86l56.36 29.95c28.7,8.2 60.7,5.69 90.75,5.16 108.44,-1.94 508.94,6.97 557.27,-10.24 29.37,-10.46 42.35,-29.39 72.04,-52.71 28.36,-22.28 9.71,5.4 25.44,-24.01 21.16,-39.56 8.29,-522.12 0.7,-543.39 -16.28,-45.65 -82.23,-45.82 -133.48,-35.67 -31.78,6.29 -31.13,18.51 -55.73,33.78 -27.82,17.28 -37.15,8.07 -68.59,26.05 -15.26,8.72 -36.12,29.88 -52.69,40.78 -57.7,37.94 -19.75,-2.05 -112.98,74.68 -58.76,48.36 -40.63,18.43 -97.06,79.84l-266.14 286.02c-22.8,39.98 -21.97,45.11 -15.9,89.77z"/>
   <path class="fil2" d="M7233.67 5713.48l95.94 1.61 3.54 -188.06c96.72,-11.63 101.97,16.88 131.55,61.51 1.26,1.89 2.85,4.53 4.11,6.4l36.19 45.3c60.6,76.73 1.05,74.39 158.41,75.06 -4.86,-29.25 -18.22,-44.91 -35.32,-71.26 -1.26,-1.95 -2.94,-4.46 -4.21,-6.41 -26.63,-40.83 -29.76,-55.46 -64.09,-82.1l-18 -13.63c-13.6,-13.93 -39.59,-14.85 6.19,-42.39 75.11,-45.2 52.11,-0.3 78.74,-68.01 22.95,-58.36 5.15,-107.05 -30.67,-141.51 -55.62,-53.51 -276.61,-37.91 -360.68,-32.37l-1.69 455.87z"/>
   <path class="fil2" d="M2938.31 5536.45l100.26 124.29c19.49,26.03 13.87,25.06 28.28,49.1l113.87 5.04c-4.93,-38.31 -62.26,-121.86 -89.35,-148.37l-37.74 -49c17.78,-21.41 -1.77,-2.9 25.34,-19.07l33.2 -18.44c57.32,-42.5 51.34,-124.07 23.11,-166.26 -14.55,-21.75 -4.61,-16.54 -23.59,-22.7 -76.54,-20.6 -5.95,-28.57 -159.44,-28.09 -60.88,0.19 -121.75,0.09 -182.63,-0.25l1.78 448.77c83.53,-1.04 67.83,13.81 66.16,-89.8 -0.58,-35.91 -2.89,-63.54 6.42,-97.7 83.5,-41.11 86.57,-0.11 94.31,12.47z"/>
   <path class="fil2" d="M7923.85 5709.84l95.52 2.34 0.58 -264.26 191.77 266.02 96.89 1.26 2.04 -459.3 -92.16 3.84 -1.11 271.56c-51.87,-19.95 -123.2,-188.76 -202.61,-274.5l-90.06 1.43 -0.86 451.61z"/>
   <path class="fil2" d="M4589.21 5712.47l91.17 3.02 3.15 -286.11c22.17,7.94 59.69,70.24 74.87,94.01 9.29,14.56 14.62,24.87 24.15,39.67l96.8 149.86 94.63 1.1 2.35 -455.67 -78.69 -3.24 -3.59 286.56 -117.11 -150.65c-85.92,-120.26 -46.76,-123.26 -105.82,-134.65 -18.48,-3.56 -60.9,0.67 -81.1,1.95l-0.82 454.15z"/>
   <path class="fil2" d="M8861.28 5472.64l-212.63 1.61 1.93 70.13 112.36 5.13 -1.79 61.82c-51.53,26.11 -124.3,51.52 -184.65,19.83 -21.14,-11.1 -43.22,-37.66 -55.53,-57.24 -48.68,-77.39 -8.02,-224.73 77.44,-243.37 52.59,-11.47 104.91,-7.94 142.01,34.39l23.75 35.11c37.69,-8.96 29.71,-15.97 90.32,-20.33 -2.69,-34.67 -28.6,-72.52 -57.19,-93.93 -93.72,-70.19 -431.56,-80.96 -391.47,252.02 5,41.57 24.61,69.46 49.68,101.93 24.12,31.25 33.25,44.76 70.54,62.5 64.42,30.65 310.31,31.37 332.96,-59.66l2.24 -169.95z"/>
   <path class="fil2" d="M3394.96 5710.93l109.41 2.3c20.06,-55.12 -8.2,-33.51 41.66,-96.84l198.01 2.05c13.15,47.45 10.76,59.76 41.57,96.36l85.55 0.12c-0.35,-66.64 -11.86,-59.36 -38.43,-120.85l-128.95 -306.83c-8.64,-19.58 -1.4,-10.34 -11.93,-27.51 -131.86,-6.79 -96.88,-31.87 -177.99,165.23l-57.87 138.04c-1.06,2.33 -2.38,4.91 -3.4,7.3 -6.92,16.18 -4.28,9.98 -11.26,31.76 -23.54,73.44 -41.84,71.19 -46.37,108.88z"/>
   <path class="fil2" d="M5532.03 5652.94l2.7 -175.16 -210.92 -5.95 1.54 76.07 100.06 -0.18c0.76,35.31 4.52,51.09 -14.7,73.15l-18.19 12.91c-51.98,24.59 -210.24,33.79 -215.51,-136.61 -2.02,-65.38 6.36,-141.01 79.38,-163.85 111.89,-34.99 147.44,23.83 175.05,66.03l85.86 -27.65c-14.11,-130.2 -177.9,-123.74 -263.7,-117.2 -66.36,5.06 -86.7,28.1 -123.72,64.61 -72.11,71.14 -89.07,333.63 86.97,390.65 104.42,33.82 230.94,5.53 315.17,-56.81z"/>
   <path class="fil2" d="M5824.31 5714.94l75.84 -0.64 2.43 -280.45c44.83,14.96 116.68,144.2 150.41,199.92 1.35,2.23 12.08,18.08 13.18,19.7 1.39,2.03 3.32,4.35 4.7,6.38l27.23 50.08 108.52 5.99 1.82 -457.08 -93.78 1.58c2.54,53.74 13.62,249.28 -6.14,282.18 -19.51,-6.17 -32.75,-42.02 -46.81,-62.07l-151.11 -223.77 -84.21 -1.66 -2.08 459.85z"/>
   <path class="fil2" d="M6330.65 5715.37l351.91 4.94 4.33 -67.33c-37.9,-14.86 -93.83,-9.1 -140.88,-9.05 -51.02,0.06 -90.71,3 -140.87,-6.47 -0.94,-34.01 -12.19,-91.02 8.73,-117.53 0.16,-0.2 16.36,-16.71 17.56,-17.97l235.39 -0.87 -11.44 -70.67 -238.89 -0.76 1.19 -97.7 247.83 2.95 1 -74.95 -341.05 1.19 5.19 454.22z"/>
   <path class="fil2" d="M6876.97 5520.37c9.85,-31.88 -2.51,-22.96 53.52,-23.61l148.6 2.59c51.03,-7.06 33.29,12.89 35.33,-48.89 -94.25,-0.27 -219.67,17.11 -241.96,-22.92l4.28 -96.53 262.41 -0.31 0.51 -74.88 -357.19 -0.03 -2.85 459.28 362.16 -0.2 2.74 -73.96 -266.84 -0.01 -0.71 -120.53z"/>
   <path class="fil2" d="M4261.11 5644.37l-34.93 -3.51c-2.53,-49.27 -7.07,-96.3 8.39,-133.76 36.47,-13.88 128.74,-5.04 176.92,-5.75 70.74,-1.04 41.54,6.53 56.2,-25.5 -15.22,-36.54 41.61,-28.22 -109.16,-26.91 -42.05,0.37 -84.86,2.31 -126.43,-2.91 -9.96,-42.88 -20.59,-93.04 10.42,-113.13l250.94 -2.4 -0.98 -71.37 -359.64 -3.06 -1.46 456.51 377.32 1.04 0.74 -65.93 -248.33 -3.34z"/>
   <path class="fil3" d="M5611.85 5715.09c58.42,8.93 61.06,11.22 116.78,-4.26l0.94 -451.17c-56.39,-17.78 -57.96,-14.7 -115.18,-4.83l-2.54 460.25z"/>
   <polygon class="fil2" points="3248.01,5710.39 3345.37,5714.32 3347.17,5259.24 3248.85,5257.9 "/>
   <polygon class="fil2" points="7732.89,5712.72 7827.28,5713.86 7828.43,5257.69 7734.73,5256.58 "/>
   <path class="fil2" d="M5660.61 5712.24c52.15,0.15 41.22,-13.93 46.46,-37.35 0.55,-2.46 11.02,-376.35 -15.21,-414.02l-50.59 18.4c-5.07,16.99 -4.13,4.95 -6.99,29.47l-0.68 356.02c7.58,62.01 -12.14,28.92 27.01,47.48z"/>
   <path class="fil4" d="M6330.65 5715.37l-5.19 -454.22 341.05 -1.19 -1 74.95c50.36,1.2 6.93,3.14 25.41,-15.31l-9.44 -78.56 -369.19 -0.8c-23.06,74.22 -13.31,373.7 -8.8,464.78 16.35,16.34 -6.08,4.26 27.15,10.35z"/>
   <path class="fil0" d="M7333.69 5447.1c156.48,15.14 213.46,6.57 183.64,-109.06l-184 -5.69 0.36 114.75z"/>
   <path class="fil0" d="M2863.66 5447.96c98.89,-0.51 128.33,12.99 188.65,-34.6 3.62,-33.82 6.42,-37.36 -13.85,-64.16 -3.46,-4.57 -11.59,-11.19 -13.26,-13.57l-159.71 -4.04 -1.83 116.37z"/>
   <path class="fil5" d="M2938.31 5536.45c-7.74,-12.58 -10.82,-53.57 -94.31,-12.47 -9.31,34.17 -7,61.79 -6.42,97.7 1.67,103.61 17.37,88.76 -66.16,89.8l-1.78 -448.77c60.88,0.34 121.75,0.44 182.63,0.25 153.49,-0.48 82.91,7.49 159.44,28.09l-9.54 -27.22c-79.4,-13.33 -279.06,-23.91 -353.42,-4.01l-0.68 450.52 101.46 8.29 3.77 -185.6 85.02 3.42z"/>
   <path class="fil4" d="M4261.11 5644.37c-36.52,-47.13 -22.19,-41.35 -24.46,-116.7l248.34 -6.33 4.04 -90.19 -252.97 -7.96 6.46 -90.27c-31.02,20.09 -20.38,70.26 -10.42,113.13 41.57,5.22 84.39,3.28 126.43,2.91 150.77,-1.31 93.94,-9.64 109.16,26.91 -14.67,32.02 14.54,24.45 -56.2,25.5 -48.18,0.71 -140.44,-8.13 -176.92,5.75 -15.46,37.46 -10.92,84.49 -8.39,133.76l34.93 3.51z"/>
   <path class="fil6" d="M6682.56 5720.31l25.01 -13.59 0.22 -53.78c-26.93,-18.96 -9.19,2.02 -26.35,-23.72l-255.02 -0.47 -0.91 -102.42 234.94 0.79 6.39 -26.03 -235.39 0.87c-1.2,1.26 -17.4,17.77 -17.56,17.97 -20.92,26.52 -9.67,83.52 -8.73,117.53 50.16,9.48 89.86,6.53 140.87,6.47 47.05,-0.06 102.98,-5.81 140.88,9.05l-4.33 67.33z"/>
   <path class="fil7" d="M5581.04 2060.31c73.09,-7.57 44.95,-175.44 70.89,-217.63 25.22,-41.02 -5.42,-12.03 43.17,-31.55 60.37,-24.26 121.13,-8.24 201.81,-1.99 -3.38,-38.28 -10.67,-30.95 -58.4,-32.3 -180.6,-5.1 -155.16,-4.61 -223.61,53.18 -2.96,38.25 0.85,92.19 -4.5,125.5 -5.75,35.81 -21.87,49.11 -29.37,104.79z"/>
   <path class="fil8" d="M3583.08 5541.01l112.28 1.33c5.16,-38.56 -23.38,-98.75 -38.39,-132.72 -17.67,-40 11.02,-25.67 -38.04,-23.18l-36.97 114.39c-3.95,19.94 -1.44,20.5 1.11,40.18z"/>
   <path class="fil3" d="M6876.97 5520.37l240.13 -0.56c12.24,-50.96 13.28,-42.11 -2.14,-90.71l-242.52 -1.56c22.3,40.03 147.71,22.65 241.96,22.92 -2.04,61.78 15.7,41.84 -35.33,48.89l-148.6 -2.59c-56.03,0.65 -43.67,-8.27 -53.52,23.61z"/>
  </g>
 </g>
</svg>
